<svg xmlns="http://www.w3.org/2000/svg" xmlns:xlink="http://www.w3.org/1999/xlink" width="1080" zoomAndPan="magnify" viewBox="0 0 810 809.999993" height="1080" preserveAspectRatio="xMidYMid meet" version="1.0"><defs><clipPath id="6fb95356f1"><path d="M 94.652344 218 L 533 218 L 533 284 L 94.652344 284 Z M 94.652344 218 " clip-rule="nonzero"/></clipPath></defs><rect x="-81" width="972" fill="#ffffff" y="-80.999999" height="971.999992" fill-opacity="1"/><rect x="-81" width="972" fill="#000000" y="-80.999999" height="971.999992" fill-opacity="1"/><g clip-path="url(#6fb95356f1)"><path fill="#c1ff72" d="M 523.09375 283.976562 L 104.320312 283.976562 C 98.976562 283.976562 94.652344 279.644531 94.652344 274.308594 L 94.652344 228.21875 C 94.652344 222.878906 98.976562 218.550781 104.320312 218.550781 L 523.09375 218.550781 C 528.4375 218.550781 532.761719 222.878906 532.761719 228.21875 L 532.761719 274.308594 C 532.761719 279.644531 528.4375 283.976562 523.09375 283.976562 Z M 113.988281 264.640625 L 513.425781 264.640625 L 513.425781 237.886719 L 113.988281 237.886719 Z M 113.988281 264.640625 " fill-opacity="1" fill-rule="nonzero"/></g><path fill="#c1ff72" d="M 480.4375 237.917969 L 146.976562 237.917969 C 141.632812 237.917969 137.308594 233.589844 137.308594 228.25 L 137.308594 172.609375 C 137.308594 167.269531 141.632812 162.941406 146.976562 162.941406 L 480.4375 162.941406 C 485.78125 162.941406 490.105469 167.269531 490.105469 172.609375 L 490.105469 228.25 C 490.105469 233.589844 485.78125 237.917969 480.4375 237.917969 Z M 156.644531 218.582031 L 470.769531 218.582031 L 470.769531 182.277344 L 156.644531 182.277344 Z M 156.644531 218.582031 " fill-opacity="1" fill-rule="nonzero"/><path fill="#c1ff72" d="M 480.4375 237.917969 L 146.976562 237.917969 C 141.632812 237.917969 137.308594 233.589844 137.308594 228.25 L 137.308594 172.609375 C 137.308594 167.269531 141.632812 162.941406 146.976562 162.941406 L 480.4375 162.941406 C 485.78125 162.941406 490.105469 167.269531 490.105469 172.609375 L 490.105469 228.25 C 490.105469 233.589844 485.78125 237.917969 480.4375 237.917969 Z M 156.644531 218.582031 L 470.769531 218.582031 L 470.769531 182.277344 L 156.644531 182.277344 Z M 156.644531 218.582031 " fill-opacity="1" fill-rule="nonzero"/><path fill="#c1ff72" d="M 441.417969 182.304688 L 186 182.304688 C 182.589844 182.304688 179.425781 180.507812 177.691406 177.578125 C 175.945312 174.648438 175.878906 171.011719 177.5 168.019531 L 207.761719 112.382812 C 209.460938 109.265625 212.71875 107.332031 216.257812 107.332031 L 411.15625 107.332031 C 414.695312 107.332031 417.953125 109.265625 419.652344 112.382812 L 449.914062 168.019531 C 451.539062 171.011719 451.472656 174.648438 449.726562 177.578125 C 447.988281 180.507812 444.824219 182.304688 441.417969 182.304688 Z M 202.265625 162.96875 L 425.148438 162.96875 L 405.40625 126.667969 L 222.007812 126.667969 Z M 202.265625 162.96875 " fill-opacity="1" fill-rule="nonzero"/><path fill="#c1ff72" d="M 398.128906 701.695312 L 229.324219 701.695312 C 204.730469 701.695312 184.242188 683.136719 181.683594 658.523438 L 171.46875 555.246094 C 171.203125 552.53125 172.089844 549.824219 173.921875 547.804688 C 175.753906 545.78125 178.359375 544.628906 181.089844 544.628906 L 415.007812 544.628906 C 420.351562 544.628906 424.675781 548.957031 424.675781 554.296875 L 424.675781 566.628906 C 424.675781 583.867188 432.445312 599.816406 445.996094 610.394531 C 448.601562 612.429688 449.988281 615.660156 449.667969 618.953125 L 448.28125 633.144531 C 447.796875 638.097656 443.636719 641.875 438.660156 641.875 L 393.011719 641.875 L 412.828125 665.941406 C 416.339844 670.214844 420.476562 673.671875 425.121094 676.222656 C 428.019531 677.8125 429.90625 680.765625 430.125 684.0625 C 430.339844 687.359375 428.859375 690.535156 426.195312 692.488281 C 418.011719 698.511719 408.304688 701.695312 398.128906 701.695312 Z M 191.757812 563.964844 L 200.917969 656.570312 C 202.445312 671.25 214.664062 682.359375 229.324219 682.359375 L 398.128906 682.359375 C 399.230469 682.359375 400.328125 682.296875 401.414062 682.167969 C 400.195312 680.914062 399.015625 679.597656 397.890625 678.222656 L 365.054688 638.351562 C 362.683594 635.464844 362.183594 631.464844 363.78125 628.078125 C 365.375 624.695312 368.785156 622.539062 372.523438 622.539062 L 429.925781 622.136719 C 414.234375 607.972656 405.339844 588.035156 405.339844 566.628906 L 405.339844 563.964844 Z M 191.757812 563.964844 " fill-opacity="1" fill-rule="nonzero"/><path fill="#c1ff72" d="M 460.402344 383.96875 L 167.039062 383.96875 C 162.207031 383.96875 158.117188 380.398438 157.457031 375.609375 L 143.796875 275.566406 C 143.417969 272.800781 144.257812 270.007812 146.089844 267.902344 C 147.929688 265.800781 150.585938 264.589844 153.378906 264.589844 L 474.074219 264.589844 C 476.867188 264.589844 479.523438 265.800781 481.363281 267.902344 C 483.195312 270.007812 484.035156 272.800781 483.65625 275.566406 L 469.984375 375.609375 C 469.324219 380.398438 465.238281 383.96875 460.402344 383.96875 Z M 175.480469 364.632812 L 451.960938 364.632812 L 463 283.925781 L 164.453125 283.925781 Z M 175.480469 364.632812 " fill-opacity="1" fill-rule="nonzero"/><path fill="#c1ff72" d="M 415.007812 563.964844 L 155.03125 563.964844 C 150.035156 563.964844 145.871094 560.167969 145.402344 555.195312 L 128.519531 375.171875 C 128.273438 372.464844 129.171875 369.773438 131.003906 367.761719 C 132.835938 365.75 135.429688 364.605469 138.148438 364.605469 L 489.292969 364.605469 C 491.964844 364.605469 494.523438 365.714844 496.347656 367.664062 C 498.179688 369.613281 499.113281 372.234375 498.941406 374.898438 L 495.703125 424.519531 C 495.375 429.601562 491.152344 433.558594 486.054688 433.558594 L 424.675781 433.558594 L 424.675781 554.296875 C 424.675781 559.632812 420.351562 563.964844 415.007812 563.964844 Z M 163.832031 544.628906 L 405.339844 544.628906 L 405.339844 423.890625 C 405.339844 418.550781 409.664062 414.222656 415.007812 414.222656 L 477 414.222656 L 478.972656 383.941406 L 148.769531 383.941406 Z M 163.832031 544.628906 " fill-opacity="1" fill-rule="nonzero"/><path fill="#c1ff72" d="M 306.632812 514.550781 C 302.003906 514.550781 297.433594 514.019531 293.007812 512.9375 C 278.890625 509.492188 267.960938 500.980469 262.210938 488.96875 C 250.664062 464.808594 264.398438 434.097656 292.828125 420.496094 C 306.253906 414.082031 321.039062 412.355469 334.453125 415.644531 C 348.570312 419.113281 359.503906 427.652344 365.261719 439.695312 C 371.003906 451.699219 370.765625 465.550781 364.601562 478.699219 C 358.738281 491.195312 348.117188 501.613281 334.691406 508.03125 C 325.664062 512.347656 316.042969 514.550781 306.632812 514.550781 Z M 320.746094 433.34375 C 314.25 433.34375 307.539062 434.898438 301.175781 437.945312 C 282.359375 446.941406 272.707031 466.089844 279.65625 480.628906 C 282.847656 487.304688 289.222656 492.109375 297.597656 494.152344 C 306.667969 496.378906 316.894531 495.113281 326.34375 490.585938 C 335.757812 486.085938 343.132812 478.949219 347.097656 470.488281 C 350.75 462.691406 351.003906 454.710938 347.816406 448.03125 C 344.605469 441.316406 338.222656 436.480469 329.847656 434.421875 C 326.902344 433.699219 323.851562 433.34375 320.746094 433.34375 Z M 320.746094 433.34375 " fill-opacity="1" fill-rule="nonzero"/><path fill="#c1ff72" d="M 279.230469 503.941406 C 276.464844 503.941406 273.726562 502.765625 271.820312 500.484375 C 268.382812 496.394531 268.921875 490.296875 273.011719 486.867188 L 344.5 426.882812 C 348.609375 423.453125 354.707031 424 358.113281 428.078125 C 361.550781 432.167969 361.011719 438.265625 356.925781 441.699219 L 285.433594 501.679688 C 283.621094 503.199219 281.421875 503.941406 279.230469 503.941406 Z M 279.230469 503.941406 " fill-opacity="1" fill-rule="nonzero"/><path fill="#c1ff72" d="M 614.324219 701.695312 L 447.65625 701.695312 C 436.261719 701.695312 425.160156 698.695312 415.554688 693.023438 C 409.003906 689.433594 402.972656 684.402344 397.890625 678.222656 L 365.054688 638.351562 C 362.683594 635.464844 362.183594 631.464844 363.78125 628.078125 C 365.375 624.695312 368.785156 622.539062 372.523438 622.539062 L 689.535156 622.539062 C 693.273438 622.539062 696.683594 624.695312 698.277344 628.078125 C 699.875 631.460938 699.375 635.464844 697.003906 638.351562 L 664.175781 678.234375 C 651.996094 693.132812 633.820312 701.695312 614.324219 701.695312 Z M 393.011719 641.875 L 412.828125 665.941406 C 416.339844 670.214844 420.476562 673.671875 425.121094 676.222656 C 432.023438 680.289062 439.71875 682.359375 447.65625 682.359375 L 614.324219 682.359375 C 627.988281 682.359375 640.703125 676.386719 649.222656 665.96875 L 669.058594 641.875 Z M 393.011719 641.875 " fill-opacity="1" fill-rule="nonzero"/><path fill="#c1ff72" d="M 581.488281 641.78125 L 480.578125 641.78125 C 463.375 641.78125 447.269531 636.171875 434.003906 625.5625 C 415.820312 611.367188 405.339844 589.867188 405.339844 566.628906 L 405.339844 423.890625 C 405.339844 418.550781 409.664062 414.222656 415.007812 414.222656 L 646.964844 414.222656 C 652.308594 414.222656 656.632812 418.550781 656.632812 423.890625 L 656.632812 566.628906 C 656.632812 608.070312 622.925781 641.78125 581.488281 641.78125 Z M 424.675781 433.558594 L 424.675781 566.628906 C 424.675781 583.867188 432.445312 599.816406 445.996094 610.394531 C 455.878906 618.304688 467.8125 622.445312 480.578125 622.445312 L 581.488281 622.445312 C 612.257812 622.445312 637.296875 597.40625 637.296875 566.628906 L 637.296875 433.558594 Z M 424.675781 433.558594 " fill-opacity="1" fill-rule="nonzero"/><path fill="#c1ff72" d="M 533.78125 479.46875 L 415.046875 479.46875 C 409.703125 479.46875 405.378906 475.140625 405.378906 469.800781 C 405.378906 464.460938 409.703125 460.132812 415.046875 460.132812 L 533.78125 460.132812 C 539.125 460.132812 543.449219 464.460938 543.449219 469.800781 C 543.449219 475.140625 539.125 479.46875 533.78125 479.46875 Z M 533.78125 479.46875 " fill-opacity="1" fill-rule="nonzero"/><path fill="#c1ff72" d="M 647.003906 479.46875 L 570.753906 479.46875 C 565.410156 479.46875 561.085938 475.140625 561.085938 469.800781 C 561.085938 464.460938 565.410156 460.132812 570.753906 460.132812 L 647.003906 460.132812 C 652.347656 460.132812 656.671875 464.460938 656.671875 469.800781 C 656.671875 475.140625 652.347656 479.46875 647.003906 479.46875 Z M 647.003906 479.46875 " fill-opacity="1" fill-rule="nonzero"/><path fill="#c1ff72" d="M 672.078125 549.167969 L 647.003906 549.167969 C 641.660156 549.167969 637.335938 544.839844 637.335938 539.5 L 637.335938 463.8125 C 637.335938 458.476562 641.660156 454.144531 647.003906 454.144531 L 679.328125 454.144531 C 690.007812 454.144531 699.863281 459.007812 706.359375 467.488281 C 712.855469 475.964844 714.988281 486.746094 712.214844 497.0625 L 704.960938 523.980469 C 700.960938 538.8125 687.441406 549.167969 672.078125 549.167969 Z M 656.671875 529.832031 L 672.078125 529.832031 C 678.714844 529.832031 684.558594 525.359375 686.289062 518.945312 L 693.539062 492.03125 C 694.738281 487.574219 693.820312 482.914062 691.007812 479.246094 C 688.203125 475.582031 683.945312 473.480469 679.328125 473.480469 L 656.671875 473.480469 Z M 702.875 494.546875 L 702.96875 494.546875 Z M 702.875 494.546875 " fill-opacity="1" fill-rule="nonzero"/><path fill="#c1ff72" d="M 560.71875 399.8125 C 556.203125 399.8125 552.164062 396.632812 551.246094 392.03125 C 550.199219 386.796875 553.597656 381.707031 558.839844 380.664062 C 561.417969 380.144531 563.171875 379.625 564.332031 379.195312 C 562.605469 376.636719 559.292969 372.9375 556.902344 370.265625 C 548.378906 360.734375 537.773438 348.871094 539.75 334.996094 C 540.910156 326.816406 546.253906 319.707031 555.609375 313.867188 C 560.121094 311.023438 566.089844 312.421875 568.929688 316.945312 C 571.753906 321.476562 570.375 327.4375 565.84375 330.265625 C 563.425781 331.777344 559.3125 334.75 558.886719 337.71875 C 558.1875 342.6875 565.777344 351.179688 571.320312 357.375 C 579.222656 366.210938 587.390625 375.347656 583.941406 385.671875 C 580.835938 394.988281 570.28125 398.097656 562.613281 399.621094 C 561.984375 399.75 561.339844 399.8125 560.71875 399.8125 Z M 560.71875 399.8125 " fill-opacity="1" fill-rule="nonzero"/><path fill="#c1ff72" d="M 594.535156 365.769531 C 589.96875 365.769531 585.90625 362.523438 585.039062 357.871094 C 584.066406 352.625 587.523438 347.578125 592.769531 346.597656 C 594.859375 346.207031 596.40625 345.816406 597.558594 345.464844 C 595.753906 343.214844 592.996094 340.332031 590.9375 338.179688 C 582.347656 329.199219 571.652344 318.019531 573.539062 304.617188 C 574.664062 296.597656 580.089844 289.695312 589.675781 284.105469 C 594.292969 281.429688 600.203125 282.972656 602.890625 287.585938 C 605.582031 292.199219 604.035156 298.117188 599.417969 300.808594 C 595.453125 303.121094 592.929688 305.554688 592.6875 307.308594 C 592.109375 311.429688 599.8125 319.484375 604.914062 324.8125 C 612.871094 333.136719 621.105469 341.742188 617.835938 351.882812 C 614.855469 361.144531 604.128906 364.152344 596.320312 365.605469 C 595.714844 365.71875 595.121094 365.769531 594.535156 365.769531 Z M 594.535156 365.769531 " fill-opacity="1" fill-rule="nonzero"/></svg>