<svg xmlns="http://www.w3.org/2000/svg" xmlns:xlink="http://www.w3.org/1999/xlink" width="1080" zoomAndPan="magnify" viewBox="0 0 810 809.999993" height="1080" preserveAspectRatio="xMidYMid meet" version="1.0"><defs><clipPath id="230bd2096a"><path d="M 28.277344 218.308594 L 782 218.308594 L 782 683.308594 L 28.277344 683.308594 Z M 28.277344 218.308594 " clip-rule="nonzero"/></clipPath></defs><rect x="-81" width="972" fill="#ffffff" y="-80.999999" height="971.999992" fill-opacity="1"/><rect x="-81" width="972" fill="#000000" y="-80.999999" height="971.999992" fill-opacity="1"/><path fill="#38b6ff" d="M 780.074219 282.914062 L 516.523438 681.664062 C 516.382812 681.902344 516.195312 682.085938 515.957031 682.222656 C 515.71875 682.355469 515.460938 682.421875 515.1875 682.417969 C 514.929688 682.402344 514.675781 682.347656 514.4375 682.25 L 30.726562 448.84375 C 30.445312 448.722656 30.222656 448.53125 30.054688 448.273438 C 29.890625 448.015625 29.808594 447.734375 29.808594 447.429688 C 29.769531 447.113281 29.824219 446.816406 29.980469 446.539062 C 30.132812 446.261719 30.355469 446.054688 30.644531 445.921875 L 442.550781 219.523438 C 442.894531 219.335938 443.253906 219.28125 443.636719 219.359375 L 778.984375 280.332031 C 779.558594 280.472656 779.972656 280.804688 780.234375 281.332031 C 780.445312 281.886719 780.390625 282.414062 780.074219 282.914062 Z M 780.074219 282.914062 " fill-opacity="1" fill-rule="nonzero"/><g clip-path="url(#230bd2096a)"><path fill="#ffffff" d="M 515.1875 683.425781 C 514.820312 683.414062 514.460938 683.339844 514.117188 683.210938 L 513.996094 683.160156 L 30.289062 449.757812 C 29.839844 449.558594 29.484375 449.253906 29.214844 448.84375 C 28.945312 448.4375 28.808594 447.988281 28.800781 447.5 C 28.746094 446.992188 28.84375 446.515625 29.089844 446.066406 C 29.332031 445.617188 29.683594 445.277344 30.136719 445.046875 L 442.0625 218.636719 C 442.621094 218.328125 443.210938 218.238281 443.832031 218.363281 L 779.175781 279.335938 C 780.070312 279.542969 780.730469 280.058594 781.148438 280.878906 L 781.203125 281.011719 C 781.351562 281.421875 781.398438 281.84375 781.347656 282.277344 C 781.296875 282.710938 781.15625 283.113281 780.917969 283.480469 L 517.394531 682.179688 C 517.167969 682.574219 516.855469 682.878906 516.460938 683.105469 C 516.066406 683.328125 515.640625 683.433594 515.1875 683.425781 Z M 514.820312 681.304688 C 514.9375 681.347656 515.0625 681.378906 515.1875 681.398438 C 515.359375 681.40625 515.5 681.339844 515.613281 681.210938 L 515.675781 681.105469 L 779.226562 282.355469 C 779.351562 282.15625 779.375 281.945312 779.300781 281.722656 C 779.164062 281.5 778.96875 281.363281 778.714844 281.308594 L 443.453125 220.355469 C 443.292969 220.320312 443.144531 220.34375 443.003906 220.433594 L 31.132812 446.816406 C 30.78125 447.019531 30.800781 447.1875 30.816406 447.300781 L 30.824219 447.429688 C 30.820312 447.652344 30.921875 447.816406 31.125 447.910156 Z M 514.820312 681.304688 " fill-opacity="1" fill-rule="nonzero"/></g><path fill="#000000" d="M 745.757812 281.996094 L 453.214844 229.519531 C 452.859375 229.449219 452.527344 229.503906 452.214844 229.6875 L 77.121094 444.097656 C 76.882812 444.25 76.695312 444.453125 76.5625 444.707031 C 76.425781 444.957031 76.363281 445.226562 76.371094 445.511719 C 76.371094 445.808594 76.453125 446.078125 76.621094 446.320312 C 76.789062 446.5625 77.011719 446.738281 77.285156 446.84375 L 486.691406 635.015625 C 486.90625 635.085938 487.128906 635.113281 487.359375 635.097656 C 487.875 635.117188 488.289062 634.925781 488.605469 634.515625 L 746.664062 284.414062 C 747.015625 283.988281 747.097656 283.519531 746.914062 283 C 746.667969 282.503906 746.28125 282.167969 745.757812 281.996094 Z M 715.851562 279.832031 L 710.269531 286.664062 L 579.910156 261.839844 L 585.992188 257.007812 Z M 505.359375 317.484375 L 415.730469 389.121094 L 280.621094 349.804688 L 382.660156 288.578125 Z M 386.410156 286.328125 L 459.878906 242.179688 L 572.828125 263.589844 L 508.441406 315.066406 Z M 412.8125 391.453125 L 281.453125 496.40625 L 138.679688 435.101562 L 277.121094 351.96875 Z M 416.398438 392.535156 L 582.578125 440.929688 L 469.796875 577.207031 L 284.703125 497.820312 Z M 419.3125 390.203125 L 509.191406 318.316406 L 655.464844 352.800781 L 584.660156 438.347656 Z M 512.191406 315.902344 L 576.746094 264.339844 L 708.023438 289.324219 L 657.628906 350.132812 Z M 581.996094 256.257812 L 575.910156 261.089844 L 463.875 239.765625 L 471.039062 235.769531 Z M 453.296875 232.609375 L 466.457031 234.941406 L 459.292969 238.929688 L 446.632812 236.523438 Z M 442.550781 238.855469 L 455.378906 241.265625 L 382.160156 285.328125 L 367.332031 281.828125 Z M 363.417969 284.085938 L 378.410156 287.585938 L 276.621094 348.636719 L 259.210938 343.554688 Z M 255.546875 345.722656 L 273.125 350.800781 L 135.179688 433.683594 L 116.023438 425.4375 Z M 81.203125 445.34375 L 112.691406 427.351562 L 131.933594 435.597656 L 100.777344 454.34375 Z M 104.191406 455.839844 L 135.429688 437.097656 L 278.789062 498.570312 L 248.96875 522.394531 Z M 252.128906 523.8125 L 281.949219 499.988281 L 467.707031 579.699219 L 441.800781 611.027344 Z M 486.863281 631.683594 L 444.71875 612.277344 L 470.707031 580.953125 L 511.441406 598.449219 Z M 513.269531 595.859375 L 472.703125 578.453125 L 585.738281 441.84375 L 619.558594 451.671875 Z M 621.472656 449.089844 L 587.90625 439.261719 L 658.792969 353.546875 L 687.03125 360.210938 Z M 689.027344 357.546875 L 660.957031 350.964844 L 711.433594 289.988281 L 735.507812 294.488281 Z M 737.507812 291.824219 L 713.6875 287.246094 L 719.351562 280.5 L 742.757812 284.582031 Z M 737.507812 291.824219 " fill-opacity="1" fill-rule="nonzero"/><path fill="#ffffff" d="M 660.171875 401.257812 L 656.003906 401.144531 L 658.832031 291.703125 L 317.472656 225.21875 L 317.667969 310.085938 L 313.507812 310.089844 L 313.296875 220.164062 L 663.082031 288.289062 L 663.042969 290.050781 Z M 651.015625 337.003906 L 651.015625 344.929688 L 659.445312 346.90625 L 658.96875 348.933594 L 651.015625 347.070312 L 651.015625 354.527344 L 659.445312 356.535156 L 658.96875 358.5625 L 636.542969 353.238281 L 636.429688 353.238281 L 636.429688 353.214844 L 562.5625 335.679688 L 561.472656 335.679688 L 561.472656 335.410156 L 551.054688 332.9375 L 551.054688 332.984375 L 548.980469 332.984375 L 548.980469 332.445312 L 537.503906 329.722656 L 536.480469 329.722656 L 536.480469 329.480469 L 315.144531 276.945312 L 315.628906 274.914062 L 324.070312 276.917969 L 324.070312 270.699219 L 315.148438 268.617188 L 315.621094 266.585938 L 324.070312 268.558594 L 324.070312 262.320312 L 315.152344 260.285156 L 315.621094 258.253906 L 324.070312 260.1875 L 324.070312 253.324219 L 315.167969 251.421875 L 315.601562 249.386719 L 324.070312 251.191406 L 324.070312 243.214844 L 315.171875 241.363281 L 315.601562 239.328125 L 324.070312 241.089844 L 324.070312 234.886719 L 315.214844 233.132812 L 315.617188 231.089844 L 324.074219 232.761719 L 324.074219 224.480469 L 326.160156 224.480469 L 326.160156 233.171875 L 336.570312 235.230469 L 336.570312 226.351562 L 338.65625 226.351562 L 338.65625 235.636719 L 349.066406 237.695312 L 349.066406 229.632812 L 351.152344 229.632812 L 351.152344 238.113281 L 361.5625 240.171875 L 361.5625 231.785156 L 363.648438 231.785156 L 363.648438 240.585938 L 374.054688 242.644531 L 374.054688 234.214844 L 376.144531 234.214844 L 376.144531 243.054688 L 386.550781 245.113281 L 386.550781 236.648438 L 388.632812 236.648438 L 388.632812 245.53125 L 399.042969 247.589844 L 399.042969 239.730469 L 401.128906 239.730469 L 401.128906 247.996094 L 411.539062 250.054688 L 411.539062 241.566406 L 413.625 241.566406 L 413.625 250.464844 L 424.035156 252.523438 L 424.035156 243.945312 L 426.117188 243.945312 L 426.117188 252.929688 L 436.535156 254.988281 L 436.535156 246.710938 L 438.609375 246.710938 L 438.609375 255.402344 L 449.023438 257.460938 L 449.023438 248.816406 L 451.101562 248.816406 L 451.101562 257.875 L 461.523438 259.933594 L 461.523438 251.253906 L 463.601562 251.253906 L 463.601562 260.34375 L 474.011719 262.410156 L 474.011719 253.679688 L 476.085938 253.679688 L 476.085938 262.808594 L 486.507812 264.867188 L 486.507812 256.390625 L 488.585938 256.390625 L 488.585938 265.285156 L 499 267.34375 L 499 259.519531 L 501.078125 259.519531 L 501.078125 267.761719 L 511.492188 269.820312 L 511.492188 261.472656 L 513.570312 261.472656 L 513.570312 270.222656 L 523.992188 272.285156 L 523.992188 265.199219 L 526.066406 265.199219 L 526.066406 272.695312 L 536.472656 274.753906 L 536.472656 266.988281 L 538.550781 266.988281 L 538.550781 275.164062 L 548.972656 277.226562 L 548.972656 269.777344 L 551.050781 269.777344 L 551.050781 277.636719 L 561.464844 279.695312 L 561.464844 271.21875 L 563.542969 271.21875 L 563.542969 280.101562 L 573.964844 282.160156 L 573.964844 273.144531 L 576.039062 273.144531 L 576.039062 282.582031 L 586.457031 284.640625 L 586.457031 276.679688 L 588.535156 276.679688 L 588.535156 285.046875 L 598.949219 287.105469 L 598.949219 278.019531 L 601.023438 278.019531 L 601.023438 287.515625 L 611.445312 289.578125 L 611.445312 280.453125 L 613.523438 280.453125 L 613.523438 289.988281 L 623.9375 292.046875 L 623.9375 283.464844 L 626.011719 283.464844 L 626.011719 292.460938 L 636.4375 294.519531 L 636.4375 285.320312 L 638.515625 285.320312 L 638.515625 294.921875 L 648.929688 296.980469 L 648.929688 289.304688 L 651.003906 289.304688 L 651.003906 297.386719 L 659.40625 299.042969 L 659.011719 301.085938 L 651.015625 299.519531 L 651.015625 309.175781 L 659.433594 310.925781 L 659.007812 312.964844 L 651.015625 311.300781 L 651.015625 320.960938 L 659.433594 322.757812 L 659.007812 324.792969 L 651.015625 323.085938 L 651.015625 334.867188 L 659.933594 336.90625 L 659.472656 338.933594 Z M 648.941406 322.644531 L 638.523438 320.421875 L 638.523438 332.007812 L 648.9375 334.386719 Z M 486.503906 315.480469 L 486.503906 308.644531 L 476.085938 306.210938 L 476.085938 313.007812 Z M 623.9375 305.664062 L 613.53125 303.5 L 613.53125 312.964844 L 623.945312 315.1875 Z M 626.015625 315.625 L 636.4375 317.847656 L 636.4375 308.265625 L 626.015625 306.097656 Z M 486.503906 287.984375 L 476.082031 285.761719 L 476.082031 294.910156 L 486.503906 297.292969 Z M 488.578125 297.765625 L 498.992188 300.144531 L 498.992188 290.648438 L 488.578125 288.425781 Z M 474.011719 285.316406 L 463.59375 283.09375 L 463.59375 292.0625 L 474.011719 294.441406 Z M 461.515625 282.652344 L 451.09375 280.429688 L 451.09375 289.203125 L 461.515625 291.582031 Z M 449.023438 279.984375 L 438.601562 277.761719 L 438.601562 286.34375 L 449.015625 288.722656 Z M 436.53125 277.320312 L 426.117188 275.097656 L 426.117188 283.496094 L 436.53125 285.875 Z M 424.03125 274.652344 L 413.621094 272.429688 L 413.621094 280.640625 L 424.03125 283.019531 Z M 411.539062 271.984375 L 401.125 269.765625 L 401.125 277.785156 L 411.539062 280.164062 Z M 399.046875 269.320312 L 388.632812 267.097656 L 388.632812 274.925781 L 399.046875 277.304688 Z M 386.550781 266.652344 L 376.144531 264.433594 L 376.144531 272.082031 L 386.550781 274.457031 Z M 374.058594 263.988281 L 363.648438 261.765625 L 363.648438 269.226562 L 374.058594 271.601562 Z M 361.566406 261.320312 L 351.144531 259.097656 L 351.144531 266.371094 L 361.554688 268.75 Z M 351.15625 268.503906 L 351.15625 274.882812 L 361.566406 277.316406 L 361.566406 270.886719 Z M 363.648438 277.804688 L 374.058594 280.234375 L 374.058594 273.738281 L 363.648438 271.359375 Z M 376.144531 280.722656 L 386.550781 283.152344 L 386.550781 276.589844 L 376.144531 274.214844 Z M 388.636719 283.640625 L 399.046875 286.070312 L 399.046875 279.449219 L 388.636719 277.070312 Z M 401.128906 286.558594 L 411.539062 288.992188 L 411.539062 282.300781 L 401.128906 279.921875 Z M 413.621094 289.476562 L 424.03125 291.910156 L 424.03125 285.152344 L 413.621094 282.777344 Z M 426.113281 292.394531 L 436.53125 294.828125 L 436.53125 288.007812 L 426.113281 285.632812 Z M 438.605469 295.3125 L 449.019531 297.746094 L 449.019531 290.859375 L 438.605469 288.480469 Z M 451.101562 298.230469 L 461.523438 300.667969 L 461.523438 293.71875 L 451.101562 291.335938 Z M 463.59375 301.152344 L 474.007812 303.585938 L 474.007812 296.578125 L 463.59375 294.199219 Z M 476.085938 304.070312 L 486.503906 306.511719 L 486.503906 299.4375 L 476.082031 297.058594 Z M 488.578125 306.988281 L 498.992188 309.421875 L 498.992188 302.28125 L 488.578125 299.902344 Z M 501.070312 309.90625 L 511.484375 312.339844 L 511.484375 305.132812 L 501.070312 302.753906 Z M 511.484375 302.996094 L 511.484375 293.316406 L 501.070312 291.09375 L 501.070312 300.621094 Z M 513.5625 303.472656 L 523.984375 305.851562 L 523.984375 295.976562 L 513.5625 293.75 Z M 526.054688 306.332031 L 536.46875 308.710938 L 536.46875 298.644531 L 526.066406 296.425781 Z M 538.546875 309.191406 L 548.96875 311.574219 L 548.96875 301.3125 L 538.546875 299.089844 Z M 551.042969 312.054688 L 561.457031 314.429688 L 561.457031 303.980469 L 551.042969 301.757812 Z M 563.535156 314.914062 L 573.957031 317.292969 L 573.957031 306.648438 L 563.535156 304.421875 Z M 576.027344 317.773438 L 586.441406 320.152344 L 586.441406 309.3125 L 576.027344 307.089844 Z M 588.519531 320.632812 L 598.933594 323.011719 L 598.933594 311.976562 L 588.519531 309.757812 Z M 576.027344 319.914062 L 576.027344 327.457031 L 586.441406 329.890625 L 586.441406 322.257812 Z M 588.519531 330.375 L 598.933594 332.804688 L 598.933594 325.113281 L 588.519531 322.730469 Z M 601.011719 333.289062 L 611.4375 335.726562 L 611.4375 327.964844 L 601.011719 325.585938 Z M 611.4375 325.867188 L 611.4375 314.640625 L 601.011719 312.417969 L 601.011719 323.445312 Z M 613.511719 326.339844 L 623.925781 328.722656 L 623.925781 317.308594 L 613.53125 315.089844 Z M 611.4375 303.097656 L 601.011719 300.925781 L 601.011719 310.328125 L 611.4375 312.550781 Z M 598.941406 300.496094 L 588.527344 298.324219 L 588.527344 307.65625 L 598.941406 309.878906 Z M 586.449219 297.890625 L 576.035156 295.726562 L 576.035156 304.996094 L 586.449219 307.21875 Z M 573.957031 295.292969 L 563.535156 293.121094 L 563.535156 302.296875 L 573.957031 304.519531 Z M 561.464844 292.6875 L 551.046875 290.519531 L 551.046875 299.664062 L 561.464844 301.886719 Z M 548.972656 290.089844 L 538.550781 287.917969 L 538.550781 296.996094 L 548.972656 299.222656 Z M 536.480469 287.484375 L 526.0625 285.316406 L 526.0625 294.332031 L 536.472656 296.519531 Z M 523.984375 284.882812 L 513.5625 282.710938 L 513.5625 291.664062 L 523.984375 293.886719 Z M 511.492188 282.277344 L 501.078125 280.109375 L 501.078125 289 L 511.492188 291.21875 Z M 499 279.679688 L 488.585938 277.507812 L 488.585938 286.296875 L 499 288.519531 Z M 486.507812 277.078125 L 476.085938 274.90625 L 476.085938 283.632812 L 486.507812 285.859375 Z M 474.015625 274.476562 L 463.597656 272.304688 L 463.597656 281 L 474.011719 283.183594 Z M 461.523438 271.871094 L 451.097656 269.703125 L 451.097656 278.332031 L 461.523438 280.558594 Z M 449.023438 269.234375 L 438.609375 267.066406 L 438.609375 275.632812 L 449.023438 277.855469 Z M 436.53125 266.632812 L 426.117188 264.464844 L 426.117188 272.964844 L 436.53125 275.191406 Z M 424.03125 264.03125 L 413.621094 261.863281 L 413.621094 270.300781 L 424.03125 272.523438 Z M 411.539062 261.429688 L 401.125 259.261719 L 401.125 267.636719 L 411.539062 269.855469 Z M 399.046875 258.828125 L 388.632812 256.660156 L 388.632812 264.96875 L 399.046875 267.191406 Z M 386.550781 256.226562 L 376.144531 254.058594 L 376.144531 262.300781 L 386.550781 264.523438 Z M 374.058594 253.625 L 363.648438 251.453125 L 363.648438 259.636719 L 374.058594 261.859375 Z M 361.566406 251.019531 L 351.15625 248.851562 L 351.15625 256.96875 L 361.566406 259.191406 Z M 349.058594 248.414062 L 338.648438 246.246094 L 338.648438 254.296875 L 349.058594 256.519531 Z M 338.648438 256.429688 L 338.648438 263.503906 L 349.058594 265.882812 L 349.058594 258.640625 Z M 338.648438 265.644531 L 338.648438 271.957031 L 349.058594 274.390625 L 349.058594 268.023438 Z M 338.648438 274.097656 L 338.648438 280.375 L 349.058594 282.847656 L 349.058594 276.523438 Z M 350.335938 283.148438 L 361.554688 285.8125 L 361.554688 279.457031 L 351.144531 277.023438 L 351.144531 283.15625 Z M 363.640625 286.308594 L 374.050781 288.78125 L 374.050781 282.375 L 363.640625 279.941406 Z M 376.132812 289.277344 L 386.539062 291.746094 L 386.539062 285.289062 L 376.132812 282.859375 Z M 388.625 292.242188 L 399.035156 294.710938 L 399.035156 288.210938 L 388.625 285.78125 Z M 401.117188 295.207031 L 411.527344 297.679688 L 411.527344 291.132812 L 401.117188 288.699219 Z M 412.800781 297.980469 L 424.023438 300.644531 L 424.023438 294.050781 L 413.617188 291.609375 L 413.617188 297.976562 Z M 426.109375 301.140625 L 436.523438 303.613281 L 436.523438 296.96875 L 426.109375 294.535156 Z M 438.601562 304.105469 L 449.015625 306.578125 L 449.015625 299.890625 L 438.601562 297.457031 Z M 449.300781 306.644531 L 461.515625 309.546875 L 461.515625 302.804688 L 451.09375 300.371094 L 451.09375 306.648438 Z M 463.597656 310.039062 L 474.015625 312.511719 L 474.015625 305.722656 L 463.597656 303.292969 Z M 488.585938 315.96875 L 499 318.445312 L 499 311.5625 L 488.585938 309.128906 Z M 501.078125 318.9375 L 511.488281 321.414062 L 511.488281 314.488281 L 501.074219 312.058594 Z M 513.570312 321.902344 L 523.992188 324.375 L 523.992188 317.402344 L 513.570312 314.964844 Z M 523.992188 315.257812 L 523.992188 307.988281 L 513.566406 305.609375 L 513.566406 312.828125 Z M 526.070312 315.742188 L 536.472656 318.175781 L 536.472656 310.839844 L 526.058594 308.464844 Z M 538.5625 318.660156 L 548.984375 321.097656 L 548.984375 313.695312 L 538.5625 311.316406 Z M 551.054688 321.582031 L 561.46875 324.015625 L 561.46875 316.546875 L 551.054688 314.167969 Z M 563.546875 324.5 L 573.96875 326.933594 L 573.96875 319.410156 L 563.546875 317.027344 Z M 563.546875 326.640625 L 563.546875 333.765625 L 573.96875 336.242188 L 573.96875 329.074219 Z M 576.039062 336.734375 L 586.457031 339.207031 L 586.457031 331.996094 L 576.039062 329.5625 Z M 588.53125 339.699219 L 598.949219 342.171875 L 598.949219 334.910156 L 588.53125 332.476562 Z M 601.027344 342.664062 L 611.449219 345.136719 L 611.449219 337.832031 L 601.027344 335.394531 Z M 613.527344 345.632812 L 623.941406 348.101562 L 623.941406 340.75 L 613.527344 338.316406 Z M 623.941406 338.609375 L 623.941406 330.820312 L 613.527344 328.441406 L 613.527344 336.175781 Z M 626.015625 339.09375 L 636.4375 341.527344 L 636.4375 333.675781 L 626.015625 331.292969 Z M 636.4375 331.539062 L 636.4375 319.976562 L 626.015625 317.753906 L 626.015625 329.160156 Z M 648.933594 310.867188 L 638.523438 308.699219 L 638.523438 318.292969 L 648.9375 320.515625 Z M 638.519531 297.050781 L 638.519531 306.574219 L 648.933594 308.742188 L 648.933594 299.109375 Z M 626.019531 294.578125 L 626.019531 303.96875 L 636.441406 306.140625 L 636.441406 296.640625 Z M 613.523438 292.109375 L 613.523438 301.367188 L 623.9375 303.535156 L 623.9375 294.167969 Z M 601.023438 289.640625 L 601.023438 298.765625 L 611.449219 300.9375 L 611.449219 291.699219 Z M 588.53125 287.167969 L 588.53125 296.164062 L 598.945312 298.332031 L 598.945312 289.230469 Z M 576.039062 284.699219 L 576.039062 293.566406 L 586.453125 295.738281 L 586.453125 286.761719 Z M 563.546875 282.226562 L 563.546875 290.957031 L 573.96875 293.128906 L 573.96875 284.292969 Z M 551.054688 279.757812 L 551.054688 288.355469 L 561.46875 290.527344 L 561.46875 281.828125 Z M 538.558594 277.289062 L 538.558594 285.757812 L 548.980469 287.925781 L 548.980469 279.347656 Z M 526.066406 274.816406 L 526.066406 283.152344 L 536.480469 285.324219 L 536.480469 276.878906 Z M 513.574219 272.347656 L 513.574219 280.550781 L 523.996094 282.71875 L 523.996094 274.410156 Z M 501.082031 269.878906 L 501.082031 277.949219 L 511.496094 280.117188 L 511.496094 271.9375 Z M 488.589844 267.40625 L 488.589844 275.355469 L 499.003906 277.523438 L 499.003906 269.46875 Z M 476.097656 264.9375 L 476.097656 272.742188 L 486.519531 274.914062 L 486.519531 267 Z M 463.601562 262.46875 L 463.601562 270.144531 L 474.019531 272.3125 L 474.019531 264.527344 Z M 451.109375 259.996094 L 451.109375 267.539062 L 461.535156 269.710938 L 461.535156 262.058594 Z M 438.617188 257.527344 L 438.617188 264.941406 L 449.03125 267.105469 L 449.03125 259.582031 Z M 426.125 255.058594 L 426.125 262.335938 L 436.539062 264.507812 L 436.539062 257.117188 Z M 413.632812 252.589844 L 413.632812 259.734375 L 424.042969 261.902344 L 424.042969 254.648438 Z M 401.140625 250.117188 L 401.140625 257.144531 L 411.550781 259.308594 L 411.550781 252.175781 Z M 388.644531 247.648438 L 388.644531 254.53125 L 399.058594 256.699219 L 399.058594 249.707031 Z M 376.152344 245.179688 L 376.152344 251.929688 L 386.558594 254.097656 L 386.558594 247.234375 Z M 363.660156 242.707031 L 363.660156 249.332031 L 374.070312 251.5 L 374.070312 244.765625 Z M 351.167969 240.238281 L 351.167969 246.726562 L 361.578125 248.894531 L 361.578125 242.296875 Z M 338.675781 237.765625 L 338.675781 244.125 L 349.085938 246.289062 L 349.085938 239.832031 Z M 326.183594 241.519531 L 336.59375 243.691406 L 336.59375 237.355469 L 326.183594 235.296875 Z M 326.183594 251.636719 L 336.59375 253.859375 L 336.59375 245.816406 L 326.183594 243.648438 Z M 326.183594 260.667969 L 336.59375 263.046875 L 336.59375 255.988281 L 326.183594 253.769531 Z M 326.183594 269.050781 L 336.59375 271.484375 L 336.59375 265.175781 L 326.183594 262.796875 Z M 326.183594 277.421875 L 336.59375 279.890625 L 336.59375 273.617188 L 326.183594 271.1875 Z M 536.472656 327.34375 L 536.472656 320.316406 L 526.058594 317.886719 L 526.058594 324.875 Z M 548.96875 330.308594 L 548.96875 323.234375 L 538.558594 320.8125 L 538.558594 327.84375 Z M 561.460938 333.277344 L 561.460938 326.15625 L 551.042969 323.722656 L 551.042969 330.796875 Z M 636.429688 351.074219 L 636.429688 343.667969 L 626.007812 341.234375 L 626.007812 348.597656 Z M 648.921875 346.585938 L 638.523438 344.152344 L 638.523438 351.566406 L 648.9375 354.039062 Z M 648.921875 336.527344 L 638.523438 334.148438 L 638.523438 342.015625 L 648.9375 344.445312 Z M 648.921875 336.527344 " fill-opacity="1" fill-rule="nonzero"/></svg>