<svg xmlns="http://www.w3.org/2000/svg" xmlns:xlink="http://www.w3.org/1999/xlink" width="1080" zoomAndPan="magnify" viewBox="0 0 810 809.999993" height="1080" preserveAspectRatio="xMidYMid meet" version="1.0"><defs><clipPath id="c3824b3d4e"><path d="M 66.523438 37.589844 L 743.773438 37.589844 L 743.773438 772.589844 L 66.523438 772.589844 Z M 66.523438 37.589844 " clip-rule="nonzero"/></clipPath></defs><rect x="-81" width="972" fill="#ffffff" y="-80.999999" height="971.999992" fill-opacity="1"/><rect x="-81" width="972" fill="#000000" y="-80.999999" height="971.999992" fill-opacity="1"/><g clip-path="url(#c3824b3d4e)"><path fill="#c1ff72" d="M 743.433594 146.613281 L 723.917969 37.652344 L 679.371094 45.628906 L 698.886719 154.585938 Z M 194.664062 751.003906 L 106.84375 582.46875 C 106.699219 582.179688 106.441406 582.066406 106.265625 582.003906 C 106.183594 581.972656 106.070312 581.957031 105.957031 581.957031 C 105.828125 581.957031 105.683594 581.988281 105.523438 582.050781 L 67.234375 602.015625 C 66.960938 602.160156 66.832031 602.402344 66.765625 602.597656 C 66.71875 602.773438 66.671875 603.046875 66.816406 603.335938 L 154.636719 771.855469 C 154.875 772.304688 155.503906 772.5 155.953125 772.273438 L 194.246094 752.308594 C 194.535156 752.164062 194.664062 751.921875 194.710938 751.730469 C 194.777344 751.535156 194.808594 751.261719 194.664062 751.003906 Z M 345.691406 567.328125 C 354.277344 567.695312 362.21875 571.425781 368.070312 577.808594 C 373.921875 584.191406 376.945312 592.421875 376.574219 601.003906 C 376.203125 609.574219 372.492188 617.53125 366.109375 623.382812 C 359.726562 629.234375 351.464844 632.238281 342.910156 631.886719 L 265.011719 628.527344 C 259.671875 628.285156 255.1875 632.417969 254.960938 637.738281 C 254.722656 643.058594 258.851562 647.558594 264.175781 647.800781 L 342.074219 651.160156 C 342.832031 651.191406 343.585938 651.207031 344.34375 651.207031 C 357.234375 651.207031 369.515625 646.417969 379.144531 637.609375 C 381.816406 635.164062 384.179688 632.480469 386.25 629.601562 L 532.3125 553.484375 C 539.933594 549.515625 548.664062 548.757812 556.925781 551.378906 C 565.1875 553.984375 571.925781 559.609375 575.894531 567.214844 C 579.867188 574.832031 580.621094 583.5625 578.015625 591.824219 C 575.414062 600.089844 569.785156 606.824219 562.183594 610.792969 L 346.351562 723.257812 C 335.757812 728.773438 324.957031 727.984375 309.875 724.738281 L 224.210938 706.363281 C 216.960938 704.804688 209.148438 703.953125 201.078125 708.148438 L 195.578125 711.027344 L 140.152344 604.652344 L 214.933594 565.6875 C 219.804688 563.148438 224.433594 562.117188 229.933594 562.359375 Z M 371.703125 371.511719 L 353.265625 371.511719 L 353.265625 486.242188 L 362.476562 495.148438 L 371.703125 486.242188 Z M 385.800781 338.605469 L 339.167969 338.605469 L 339.167969 352.203125 C 339.359375 352.203125 339.566406 352.234375 339.761719 352.234375 L 385.191406 352.234375 C 385.398438 352.234375 385.59375 352.203125 385.800781 352.203125 Z M 385.800781 305.730469 L 339.167969 305.730469 L 339.167969 319.3125 L 385.800781 319.3125 Z M 383.664062 286.4375 C 379.964844 278.417969 371.878906 272.808594 362.476562 272.808594 C 353.085938 272.808594 344.984375 278.402344 341.304688 286.4375 Z M 416.652344 232.601562 C 416.554688 232.683594 416.457031 232.777344 416.359375 232.859375 C 415.71875 233.503906 415.074219 234.113281 414.433594 234.722656 C 409.222656 239.722656 402.730469 245.945312 402.085938 256.3125 L 401.652344 263.484375 C 401.058594 272.855469 404.675781 281.34375 411.8125 287.433594 C 414.015625 289.316406 416.410156 290.796875 418.917969 291.9375 L 418.917969 318.492188 C 418.917969 329.648438 413.453125 339.519531 405.09375 345.660156 L 405.09375 296.117188 C 405.09375 272.628906 385.976562 253.515625 362.476562 253.515625 C 338.988281 253.515625 319.875 272.628906 319.875 296.117188 L 319.875 345.660156 C 311.5 339.519531 306.050781 329.648438 306.050781 318.492188 L 306.050781 244.640625 C 306.050781 226.042969 321.179688 210.914062 339.761719 210.914062 L 385.191406 210.914062 C 399.222656 210.949219 411.699219 219.789062 416.652344 232.601562 Z M 677.460938 144.378906 L 664.503906 147.722656 C 652.816406 150.746094 643.394531 156.726562 635.695312 166.015625 L 580.394531 232.714844 C 574.191406 240.207031 566.875 244.691406 557.375 246.828125 L 432.839844 274.863281 C 429.625 275.585938 426.84375 274.894531 424.335938 272.757812 C 421.8125 270.621094 420.703125 267.984375 420.894531 264.6875 L 421.34375 257.503906 C 421.503906 254.898438 423.335938 252.90625 427.789062 248.644531 C 428.480469 247.96875 429.207031 247.277344 429.914062 246.605469 C 439.074219 237.570312 450.859375 233.613281 463.316406 229.433594 C 469.023438 227.523438 474.90625 225.5625 480.710938 223.035156 C 491.882812 218.183594 500.179688 210.113281 505.339844 199.085938 L 511.320312 186.320312 C 513.085938 182.527344 512.21875 178.042969 509.164062 175.179688 L 480.003906 147.867188 C 478.027344 146.019531 475.375 145.085938 472.65625 145.296875 L 427.757812 148.769531 C 425.796875 148.914062 423.917969 149.667969 422.390625 150.921875 L 384.226562 182.238281 C 381.941406 184.117188 380.640625 186.929688 380.6875 189.890625 L 380.738281 191.625 L 353.746094 191.625 C 351.882812 179.199219 355.386719 168.1875 363.9375 159.746094 L 434.976562 89.707031 L 662.398438 60.207031 Z M 677.460938 144.378906 " fill-opacity="1" fill-rule="evenodd"/></g></svg>