<svg xmlns="http://www.w3.org/2000/svg" xmlns:xlink="http://www.w3.org/1999/xlink" width="1080" zoomAndPan="magnify" viewBox="0 0 810 809.999993" height="1080" preserveAspectRatio="xMidYMid meet" version="1.0"><rect x="-81" width="972" fill="#ffffff" y="-80.999999" height="971.999992" fill-opacity="1"/><rect x="-81" width="972" fill="#ffffff" y="-80.999999" height="971.999992" fill-opacity="1"/><path fill="#000000" d="M 68.117188 -29.328125 C 6.046875 -29.285156 -28.945312 2.894531 -29.109375 68.617188 L -29.109375 746.652344 C -28.945312 808.019531 2.515625 840.222656 64.863281 840.261719 L 745.425781 840.261719 C 807.636719 840.222656 839.144531 809.621094 839.035156 746.652344 L 839.035156 68.617188 C 839.144531 4.5 807.636719 -29.285156 743.621094 -29.328125 C 743.621094 -29.328125 68.078125 -29.503906 68.117188 -29.328125 " fill-opacity="1" fill-rule="nonzero"/><path stroke-linecap="butt" transform="matrix(0.361426, 0, 0, -0.361426, -57.028148, 868.524888)" fill="none" stroke-linejoin="miter" d="M 346.254735 2484.198516 C 174.517294 2484.079629 77.700177 2395.044196 77.246246 2213.201375 L 77.246246 337.199508 C 77.700177 167.407489 164.746958 78.307208 337.251759 78.199129 L 2220.246333 78.199129 C 2392.372858 78.307208 2479.549333 162.976252 2479.246712 337.199508 L 2479.246712 2213.201375 C 2479.549333 2390.602152 2392.372858 2484.079629 2215.253086 2484.198516 C 2215.253086 2484.198516 346.146656 2484.684871 346.254735 2484.198516 Z M 346.254735 2484.198516 " stroke="#000000" stroke-width="14.2" stroke-opacity="1" stroke-miterlimit="10"/><path fill="#38b6ff" d="M 380.367188 698.925781 L 436.027344 698.925781 L 436.027344 106.910156 L 380.367188 106.910156 Z M 380.367188 698.925781 " fill-opacity="1" fill-rule="nonzero"/><path fill="#38b6ff" d="M 204.734375 199.074219 C 231.753906 199.097656 253.609375 177.246094 253.527344 150.28125 C 253.609375 123.332031 231.753906 101.476562 204.734375 101.488281 C 177.839844 101.476562 155.984375 123.332031 155.941406 150.28125 C 155.984375 177.246094 177.839844 199.097656 204.734375 199.074219 " fill-opacity="1" fill-rule="nonzero"/><path fill="#38b6ff" d="M 197.503906 508.453125 L 197.503906 679.410156 C 197.597656 710.078125 151.570312 710.078125 151.605469 679.410156 L 151.605469 508.453125 L 90.523438 508.453125 L 155.941406 282.203125 L 145.460938 282.203125 L 107.148438 411.59375 C 97.976562 439.738281 59.246094 428.148438 68.117188 397.859375 L 110.765625 257.265625 C 115.359375 241.410156 135.621094 213.007812 170.761719 213.167969 L 237.984375 213.167969 C 272.617188 213.007812 292.972656 241.648438 298.34375 257.265625 L 340.992188 397.859375 C 349.464844 427.996094 311.039062 440.5 301.957031 411.230469 L 263.648438 282.203125 L 252.441406 282.203125 L 318.222656 508.453125 L 257.140625 508.453125 L 257.140625 679.410156 C 257.0625 710.078125 211.226562 709.925781 211.238281 679.410156 L 211.238281 508.453125 L 197.503906 508.453125 " fill-opacity="1" fill-rule="nonzero"/><path fill="#38b6ff" d="M 553.148438 212.808594 C 518.792969 212.824219 491.167969 241.238281 491.34375 276.78125 L 491.34375 427.855469 C 491.167969 457.089844 533.542969 457.089844 533.632812 427.855469 L 533.632812 289.429688 L 543.75 289.429688 L 543.75 672.179688 C 543.570312 711.570312 599.996094 710.414062 600.132812 672.179688 L 600.132812 448.097656 L 609.890625 448.097656 L 609.890625 672.179688 C 609.714844 710.414062 666.449219 711.570312 666.273438 672.179688 L 666.273438 289.429688 L 676.394531 289.429688 L 676.394531 427.855469 C 676.242188 457.3125 718.390625 457.3125 718.320312 427.855469 L 718.320312 277.503906 C 718.320312 244.898438 693.296875 212.890625 655.433594 212.808594 L 553.148438 212.808594 " fill-opacity="1" fill-rule="nonzero"/><path fill="#38b6ff" d="M 604.472656 199.074219 C 631.582031 199.097656 653.4375 177.246094 653.261719 150.28125 C 653.4375 123.332031 631.582031 101.476562 604.472656 101.488281 C 577.667969 101.476562 555.808594 123.332031 555.679688 150.28125 C 555.808594 177.246094 577.667969 199.097656 604.472656 199.074219 " fill-opacity="1" fill-rule="nonzero"/></svg>